<svg xmlns="http://www.w3.org/2000/svg" version="1.1" xmlns:xlink="http://www.w3.org/1999/xlink" xmlns:svgjs="http://svgjs.dev/svgjs" width="2000" height="1400" preserveAspectRatio="none" viewBox="0 0 2000 1400"><g mask="url(&quot;#SvgjsMask1439&quot;)" fill="none"><rect width="2000" height="1400" x="0" y="0" fill="url(&quot;#SvgjsLinearGradient1440&quot;)"></rect><g mask="url(&quot;#SvgjsMask1441&quot;)"><path d="M1025 975L975 925L975 875M1025 875L1075 825L1075 775L1075 725L1075 675M1025 1475L1025 1425L1025 1375L1025 1325L1025 1275L1025 1225L1025 1175L1025 1125L1025 1075L1025 1025L1025 975L1025 925L1025 875L1025 825" stroke="#3a7cc3" stroke-width="8.33"></path><path d="M1012.5 825 a12.5 12.5 0 1 0 25 0 a12.5 12.5 0 1 0 -25 0zM962.5 875 a12.5 12.5 0 1 0 25 0 a12.5 12.5 0 1 0 -25 0zM1062.5 675 a12.5 12.5 0 1 0 25 0 a12.5 12.5 0 1 0 -25 0z" fill="#3a7cc3"></path><path d="M975 1025L975 975M975 1475L975 1425L975 1375L975 1325L975 1275L975 1225L975 1175L975 1125L975 1075L975 1025L925 975L925 925" stroke="#3a7cc3" stroke-width="8.33"></path><path d="M912.5 925 a12.5 12.5 0 1 0 25 0 a12.5 12.5 0 1 0 -25 0zM962.5 975 a12.5 12.5 0 1 0 25 0 a12.5 12.5 0 1 0 -25 0z" fill="#3a7cc3"></path><path d="M1075 975L1125 925L1125 875L1125 825L1125 775M1075 1025L1125 975L1175 925L1225 875M1075 1325L1125 1275M1075 1475L1075 1425L1075 1375L1075 1325L1075 1275L1075 1225L1075 1175L1075 1125L1075 1075L1075 1025L1075 975L1075 925" stroke="#3a7cc3" stroke-width="8.33"></path><path d="M1062.5 925 a12.5 12.5 0 1 0 25 0 a12.5 12.5 0 1 0 -25 0zM1112.5 775 a12.5 12.5 0 1 0 25 0 a12.5 12.5 0 1 0 -25 0zM1212.5 875 a12.5 12.5 0 1 0 25 0 a12.5 12.5 0 1 0 -25 0zM1112.5 1275 a12.5 12.5 0 1 0 25 0 a12.5 12.5 0 1 0 -25 0z" fill="#3a7cc3"></path><path d="M875 725L875 675L875 625M925 675L975 625L975 575L975 525L975 475M875 775L925 725M925 1475L925 1425L925 1375L925 1325L925 1275L925 1225L925 1175L925 1125L925 1075L925 1025L875 975L875 925L875 875L875 825L875 775L875 725L925 675L925 625L925 575" stroke="#dd1133" stroke-width="8.33"></path><path d="M912.5 575 a12.5 12.5 0 1 0 25 0 a12.5 12.5 0 1 0 -25 0zM862.5 625 a12.5 12.5 0 1 0 25 0 a12.5 12.5 0 1 0 -25 0zM962.5 475 a12.5 12.5 0 1 0 25 0 a12.5 12.5 0 1 0 -25 0zM912.5 725 a12.5 12.5 0 1 0 25 0 a12.5 12.5 0 1 0 -25 0z" fill="#dd1133"></path><path d="M1175 1125L1125 1075L1125 1025M1175 1075L1225 1025M1125 1425L1125 1375L1125 1325M1125 1475L1125 1425L1175 1375L1175 1325L1175 1275L1175 1225L1175 1175L1175 1125L1175 1075L1175 1025" stroke="#3a7cc3" stroke-width="8.33"></path><path d="M1162.5 1025 a12.5 12.5 0 1 0 25 0 a12.5 12.5 0 1 0 -25 0zM1112.5 1025 a12.5 12.5 0 1 0 25 0 a12.5 12.5 0 1 0 -25 0zM1212.5 1025 a12.5 12.5 0 1 0 25 0 a12.5 12.5 0 1 0 -25 0zM1112.5 1325 a12.5 12.5 0 1 0 25 0 a12.5 12.5 0 1 0 -25 0z" fill="#3a7cc3"></path><path d="M825 925L825 875L825 825L825 775M775 825L725 775L725 725M825 725L775 675L775 625L775 575L775 525M775 775L775 725M875 1475L875 1425L875 1375L875 1325L875 1275L875 1225L875 1175L875 1125L875 1075L875 1025L825 975L825 925L775 875L775 825L775 775L825 725L825 675" stroke="#3a7cc3" stroke-width="8.33"></path><path d="M812.5 675 a12.5 12.5 0 1 0 25 0 a12.5 12.5 0 1 0 -25 0zM812.5 775 a12.5 12.5 0 1 0 25 0 a12.5 12.5 0 1 0 -25 0zM712.5 725 a12.5 12.5 0 1 0 25 0 a12.5 12.5 0 1 0 -25 0zM762.5 525 a12.5 12.5 0 1 0 25 0 a12.5 12.5 0 1 0 -25 0zM762.5 725 a12.5 12.5 0 1 0 25 0 a12.5 12.5 0 1 0 -25 0z" fill="#3a7cc3"></path><path d="M1175 1475L1175 1425L1225 1375L1225 1325L1225 1275L1225 1225" stroke="#dd1133" stroke-width="8.33"></path><path d="M1212.5 1225 a12.5 12.5 0 1 0 25 0 a12.5 12.5 0 1 0 -25 0z" fill="#dd1133"></path><path d="M625 275L675 225L675 175L675 125M625 425L675 375M625 175L575 125M625 475L675 425M625 325L575 275L575 225L575 175L525 125M675 675L675 625L675 575L675 525L675 475L725 425L725 375L725 325L725 275L775 225L775 175M625 525L575 475L575 425L575 375M825 1475L825 1425L825 1375L825 1325L825 1275L825 1225L825 1175L825 1125L825 1075L825 1025L775 975L775 925L725 875L675 825L675 775L675 725L675 675L625 625L625 575L625 525L625 475L625 425L625 375L625 325L625 275L625 225L625 175L625 125" stroke="#3a7cc3" stroke-width="8.33"></path><path d="M612.5 125 a12.5 12.5 0 1 0 25 0 a12.5 12.5 0 1 0 -25 0zM662.5 125 a12.5 12.5 0 1 0 25 0 a12.5 12.5 0 1 0 -25 0zM662.5 375 a12.5 12.5 0 1 0 25 0 a12.5 12.5 0 1 0 -25 0zM562.5 125 a12.5 12.5 0 1 0 25 0 a12.5 12.5 0 1 0 -25 0zM662.5 425 a12.5 12.5 0 1 0 25 0 a12.5 12.5 0 1 0 -25 0zM512.5 125 a12.5 12.5 0 1 0 25 0 a12.5 12.5 0 1 0 -25 0zM762.5 175 a12.5 12.5 0 1 0 25 0 a12.5 12.5 0 1 0 -25 0zM562.5 375 a12.5 12.5 0 1 0 25 0 a12.5 12.5 0 1 0 -25 0z" fill="#3a7cc3"></path><path d="M1275 1175L1225 1125L1225 1075M1275 875L1325 825L1325 775L1325 725L1325 675M1275 1275L1325 1225L1325 1175L1325 1125L1325 1075M1225 675L1175 625L1175 575L1125 525M1275 1025L1325 975L1375 925L1375 875M1225 1475L1225 1425L1275 1375L1275 1325L1275 1275L1275 1225L1275 1175L1275 1125L1275 1075L1275 1025L1275 975L1275 925L1275 875L1275 825L1225 775L1225 725L1225 675L1225 625L1225 575L1225 525" stroke="#3a7cc3" stroke-width="8.33"></path><path d="M1212.5 525 a12.5 12.5 0 1 0 25 0 a12.5 12.5 0 1 0 -25 0zM1212.5 1075 a12.5 12.5 0 1 0 25 0 a12.5 12.5 0 1 0 -25 0zM1312.5 675 a12.5 12.5 0 1 0 25 0 a12.5 12.5 0 1 0 -25 0zM1312.5 1075 a12.5 12.5 0 1 0 25 0 a12.5 12.5 0 1 0 -25 0zM1112.5 525 a12.5 12.5 0 1 0 25 0 a12.5 12.5 0 1 0 -25 0zM1362.5 875 a12.5 12.5 0 1 0 25 0 a12.5 12.5 0 1 0 -25 0z" fill="#3a7cc3"></path><path d="M775 1175L725 1125L725 1075M725 975L675 925M625 725L575 675M525 475L475 425L475 375L475 325L475 275L475 225L425 175L425 125M625 825L575 775L575 725M775 1475L775 1425L775 1375L775 1325L775 1275L775 1225L775 1175L775 1125L775 1075L775 1025L725 975L725 925L675 875L625 825L625 775L625 725L625 675L575 625L575 575L525 525L525 475L525 425" stroke="#3a7cc3" stroke-width="8.33"></path><path d="M512.5 425 a12.5 12.5 0 1 0 25 0 a12.5 12.5 0 1 0 -25 0zM712.5 1075 a12.5 12.5 0 1 0 25 0 a12.5 12.5 0 1 0 -25 0zM662.5 925 a12.5 12.5 0 1 0 25 0 a12.5 12.5 0 1 0 -25 0zM562.5 675 a12.5 12.5 0 1 0 25 0 a12.5 12.5 0 1 0 -25 0zM412.5 125 a12.5 12.5 0 1 0 25 0 a12.5 12.5 0 1 0 -25 0zM562.5 725 a12.5 12.5 0 1 0 25 0 a12.5 12.5 0 1 0 -25 0z" fill="#3a7cc3"></path><path d="M1375 1375L1325 1325L1325 1275M1325 1425L1325 1375M1275 1475L1325 1425L1375 1375L1375 1325L1375 1275L1375 1225L1375 1175L1375 1125L1375 1075L1375 1025" stroke="#dd1133" stroke-width="8.33"></path><path d="M1362.5 1025 a12.5 12.5 0 1 0 25 0 a12.5 12.5 0 1 0 -25 0zM1312.5 1275 a12.5 12.5 0 1 0 25 0 a12.5 12.5 0 1 0 -25 0zM1312.5 1375 a12.5 12.5 0 1 0 25 0 a12.5 12.5 0 1 0 -25 0z" fill="#dd1133"></path><path d="M725 1475L725 1425L725 1375L725 1325L725 1275L725 1225" stroke="#3a7cc3" stroke-width="8.33"></path><path d="M712.5 1225 a12.5 12.5 0 1 0 25 0 a12.5 12.5 0 1 0 -25 0z" fill="#3a7cc3"></path><path d="M575 875L575 825M625 1075L675 1025L675 975M575 925L625 875M675 1475L675 1425L675 1375L675 1325L675 1275L675 1225L675 1175L675 1125L625 1075L625 1025L625 975L575 925L575 875L525 825L525 775L525 725L525 675" stroke="#dd1133" stroke-width="8.33"></path><path d="M512.5 675 a12.5 12.5 0 1 0 25 0 a12.5 12.5 0 1 0 -25 0zM562.5 825 a12.5 12.5 0 1 0 25 0 a12.5 12.5 0 1 0 -25 0zM662.5 975 a12.5 12.5 0 1 0 25 0 a12.5 12.5 0 1 0 -25 0zM612.5 875 a12.5 12.5 0 1 0 25 0 a12.5 12.5 0 1 0 -25 0z" fill="#dd1133"></path><path d="M625 1475L625 1425L625 1375L625 1325L625 1275L625 1225L625 1175" stroke="#3a7cc3" stroke-width="8.33"></path><path d="M612.5 1175 a12.5 12.5 0 1 0 25 0 a12.5 12.5 0 1 0 -25 0z" fill="#3a7cc3"></path><path d="M1425 1025L1475 975L1475 925L1475 875L1475 825M1425 775L1375 725L1375 675L1375 625L1375 575L1375 525L1375 475M1425 675L1425 625L1425 575M1425 825L1375 775M1425 1475L1425 1425L1425 1375L1425 1325L1425 1275L1425 1225L1425 1175L1425 1125L1425 1075L1425 1025L1425 975L1425 925L1425 875L1425 825L1425 775L1425 725L1425 675L1475 625L1475 575" stroke="#dd1133" stroke-width="8.33"></path><path d="M1462.5 575 a12.5 12.5 0 1 0 25 0 a12.5 12.5 0 1 0 -25 0zM1462.5 825 a12.5 12.5 0 1 0 25 0 a12.5 12.5 0 1 0 -25 0zM1362.5 475 a12.5 12.5 0 1 0 25 0 a12.5 12.5 0 1 0 -25 0zM1412.5 575 a12.5 12.5 0 1 0 25 0 a12.5 12.5 0 1 0 -25 0zM1362.5 775 a12.5 12.5 0 1 0 25 0 a12.5 12.5 0 1 0 -25 0z" fill="#dd1133"></path><path d="M575 1375L525 1325L525 1275M575 1175L525 1125M475 675L425 625M475 625L475 575M575 1425L525 1375M575 1475L575 1425L575 1375L575 1325L575 1275L575 1225L575 1175L575 1125L575 1075L575 1025L575 975L525 925L525 875L475 825L475 775L475 725L475 675L475 625L425 575L425 525L425 475L425 425" stroke="#3a7cc3" stroke-width="8.33"></path><path d="M412.5 425 a12.5 12.5 0 1 0 25 0 a12.5 12.5 0 1 0 -25 0zM512.5 1275 a12.5 12.5 0 1 0 25 0 a12.5 12.5 0 1 0 -25 0zM512.5 1125 a12.5 12.5 0 1 0 25 0 a12.5 12.5 0 1 0 -25 0zM412.5 625 a12.5 12.5 0 1 0 25 0 a12.5 12.5 0 1 0 -25 0zM462.5 575 a12.5 12.5 0 1 0 25 0 a12.5 12.5 0 1 0 -25 0zM512.5 1375 a12.5 12.5 0 1 0 25 0 a12.5 12.5 0 1 0 -25 0z" fill="#3a7cc3"></path><path d="M1475 1125L1525 1075L1525 1025L1525 975M1475 1225L1525 1175L1525 1125L1575 1075M1475 1425L1525 1375L1525 1325L1525 1275L1525 1225M1475 1475L1475 1425L1475 1375L1475 1325L1475 1275L1475 1225L1475 1175L1475 1125L1475 1075" stroke="#dd1133" stroke-width="8.33"></path><path d="M1462.5 1075 a12.5 12.5 0 1 0 25 0 a12.5 12.5 0 1 0 -25 0zM1512.5 975 a12.5 12.5 0 1 0 25 0 a12.5 12.5 0 1 0 -25 0zM1562.5 1075 a12.5 12.5 0 1 0 25 0 a12.5 12.5 0 1 0 -25 0zM1512.5 1225 a12.5 12.5 0 1 0 25 0 a12.5 12.5 0 1 0 -25 0z" fill="#dd1133"></path><path d="M475 1325L425 1275L425 1225L425 1175L375 1125L375 1075L375 1025M375 475L325 425L325 375M375 625L325 575L325 525L325 475L275 425L275 375L275 325L325 275L325 225M375 675L325 625L275 575L275 525L275 475M375 325L425 275L425 225M425 775L375 725L325 675L275 625M525 1475L475 1425L475 1375L475 1325L475 1275L475 1225L475 1175L475 1125L525 1075L525 1025L475 975L475 925L475 875L425 825L425 775L425 725L375 675L375 625L375 575L375 525L375 475L375 425L375 375L375 325L375 275L375 225" stroke="#3a7cc3" stroke-width="8.33"></path><path d="M362.5 225 a12.5 12.5 0 1 0 25 0 a12.5 12.5 0 1 0 -25 0zM362.5 1025 a12.5 12.5 0 1 0 25 0 a12.5 12.5 0 1 0 -25 0zM312.5 375 a12.5 12.5 0 1 0 25 0 a12.5 12.5 0 1 0 -25 0zM312.5 225 a12.5 12.5 0 1 0 25 0 a12.5 12.5 0 1 0 -25 0zM262.5 475 a12.5 12.5 0 1 0 25 0 a12.5 12.5 0 1 0 -25 0zM412.5 225 a12.5 12.5 0 1 0 25 0 a12.5 12.5 0 1 0 -25 0zM262.5 625 a12.5 12.5 0 1 0 25 0 a12.5 12.5 0 1 0 -25 0z" fill="#3a7cc3"></path></g></g><defs><mask id="SvgjsMask1439"><rect width="2000" height="1400" fill="#ffffff"></rect></mask><linearGradient x1="50%" y1="100%" x2="50%" y2="0%" gradientUnits="userSpaceOnUse" id="SvgjsLinearGradient1440"><stop stop-color="#0e2a47" offset="0"></stop><stop stop-color="#00459e" offset="1"></stop></linearGradient><mask id="SvgjsMask1441"><rect width="2000" height="1400" fill="white"></rect><path d="M1018.75 825 a6.25 6.25 0 1 0 12.5 0 a6.25 6.25 0 1 0 -12.5 0zM968.75 875 a6.25 6.25 0 1 0 12.5 0 a6.25 6.25 0 1 0 -12.5 0zM1068.75 675 a6.25 6.25 0 1 0 12.5 0 a6.25 6.25 0 1 0 -12.5 0z" fill="black"></path><path d="M918.75 925 a6.25 6.25 0 1 0 12.5 0 a6.25 6.25 0 1 0 -12.5 0zM968.75 975 a6.25 6.25 0 1 0 12.5 0 a6.25 6.25 0 1 0 -12.5 0z" fill="black"></path><path d="M1068.75 925 a6.25 6.25 0 1 0 12.5 0 a6.25 6.25 0 1 0 -12.5 0zM1118.75 775 a6.25 6.25 0 1 0 12.5 0 a6.25 6.25 0 1 0 -12.5 0zM1218.75 875 a6.25 6.25 0 1 0 12.5 0 a6.25 6.25 0 1 0 -12.5 0zM1118.75 1275 a6.25 6.25 0 1 0 12.5 0 a6.25 6.25 0 1 0 -12.5 0z" fill="black"></path><path d="M918.75 575 a6.25 6.25 0 1 0 12.5 0 a6.25 6.25 0 1 0 -12.5 0zM868.75 625 a6.25 6.25 0 1 0 12.5 0 a6.25 6.25 0 1 0 -12.5 0zM968.75 475 a6.25 6.25 0 1 0 12.5 0 a6.25 6.25 0 1 0 -12.5 0zM918.75 725 a6.25 6.25 0 1 0 12.5 0 a6.25 6.25 0 1 0 -12.5 0z" fill="black"></path><path d="M1168.75 1025 a6.25 6.25 0 1 0 12.5 0 a6.25 6.25 0 1 0 -12.5 0zM1118.75 1025 a6.25 6.25 0 1 0 12.5 0 a6.25 6.25 0 1 0 -12.5 0zM1218.75 1025 a6.25 6.25 0 1 0 12.5 0 a6.25 6.25 0 1 0 -12.5 0zM1118.75 1325 a6.25 6.25 0 1 0 12.5 0 a6.25 6.25 0 1 0 -12.5 0z" fill="black"></path><path d="M818.75 675 a6.25 6.25 0 1 0 12.5 0 a6.25 6.25 0 1 0 -12.5 0zM818.75 775 a6.25 6.25 0 1 0 12.5 0 a6.25 6.25 0 1 0 -12.5 0zM718.75 725 a6.25 6.25 0 1 0 12.5 0 a6.25 6.25 0 1 0 -12.5 0zM768.75 525 a6.25 6.25 0 1 0 12.5 0 a6.25 6.25 0 1 0 -12.5 0zM768.75 725 a6.25 6.25 0 1 0 12.5 0 a6.25 6.25 0 1 0 -12.5 0z" fill="black"></path><path d="M1218.75 1225 a6.25 6.25 0 1 0 12.5 0 a6.25 6.25 0 1 0 -12.5 0z" fill="black"></path><path d="M618.75 125 a6.25 6.25 0 1 0 12.5 0 a6.25 6.25 0 1 0 -12.5 0zM668.75 125 a6.25 6.25 0 1 0 12.5 0 a6.25 6.25 0 1 0 -12.5 0zM668.75 375 a6.25 6.25 0 1 0 12.5 0 a6.25 6.25 0 1 0 -12.5 0zM568.75 125 a6.25 6.25 0 1 0 12.5 0 a6.25 6.25 0 1 0 -12.5 0zM668.75 425 a6.25 6.25 0 1 0 12.5 0 a6.25 6.25 0 1 0 -12.5 0zM518.75 125 a6.25 6.25 0 1 0 12.5 0 a6.25 6.25 0 1 0 -12.5 0zM768.75 175 a6.25 6.25 0 1 0 12.5 0 a6.25 6.25 0 1 0 -12.5 0zM568.75 375 a6.25 6.25 0 1 0 12.5 0 a6.25 6.25 0 1 0 -12.5 0z" fill="black"></path><path d="M1218.75 525 a6.25 6.25 0 1 0 12.5 0 a6.25 6.25 0 1 0 -12.5 0zM1218.75 1075 a6.25 6.25 0 1 0 12.5 0 a6.25 6.25 0 1 0 -12.5 0zM1318.75 675 a6.25 6.25 0 1 0 12.5 0 a6.25 6.25 0 1 0 -12.5 0zM1318.75 1075 a6.25 6.25 0 1 0 12.5 0 a6.25 6.25 0 1 0 -12.5 0zM1118.75 525 a6.25 6.25 0 1 0 12.5 0 a6.25 6.25 0 1 0 -12.5 0zM1368.75 875 a6.25 6.25 0 1 0 12.5 0 a6.25 6.25 0 1 0 -12.5 0z" fill="black"></path><path d="M518.75 425 a6.25 6.25 0 1 0 12.5 0 a6.25 6.25 0 1 0 -12.5 0zM718.75 1075 a6.25 6.25 0 1 0 12.5 0 a6.25 6.25 0 1 0 -12.5 0zM668.75 925 a6.25 6.25 0 1 0 12.5 0 a6.25 6.25 0 1 0 -12.5 0zM568.75 675 a6.25 6.25 0 1 0 12.5 0 a6.25 6.25 0 1 0 -12.5 0zM418.75 125 a6.25 6.25 0 1 0 12.5 0 a6.25 6.25 0 1 0 -12.5 0zM568.75 725 a6.25 6.25 0 1 0 12.5 0 a6.25 6.25 0 1 0 -12.5 0z" fill="black"></path><path d="M1368.75 1025 a6.25 6.25 0 1 0 12.5 0 a6.25 6.25 0 1 0 -12.5 0zM1318.75 1275 a6.25 6.25 0 1 0 12.5 0 a6.25 6.25 0 1 0 -12.5 0zM1318.75 1375 a6.25 6.25 0 1 0 12.5 0 a6.25 6.25 0 1 0 -12.5 0z" fill="black"></path><path d="M718.75 1225 a6.25 6.25 0 1 0 12.5 0 a6.25 6.25 0 1 0 -12.5 0z" fill="black"></path><path d="M518.75 675 a6.25 6.25 0 1 0 12.5 0 a6.25 6.25 0 1 0 -12.5 0zM568.75 825 a6.25 6.25 0 1 0 12.5 0 a6.25 6.25 0 1 0 -12.5 0zM668.75 975 a6.25 6.25 0 1 0 12.5 0 a6.25 6.25 0 1 0 -12.5 0zM618.75 875 a6.25 6.25 0 1 0 12.5 0 a6.25 6.25 0 1 0 -12.5 0z" fill="black"></path><path d="M618.75 1175 a6.25 6.25 0 1 0 12.5 0 a6.25 6.25 0 1 0 -12.5 0z" fill="black"></path><path d="M1468.75 575 a6.25 6.25 0 1 0 12.5 0 a6.25 6.25 0 1 0 -12.5 0zM1468.75 825 a6.25 6.25 0 1 0 12.5 0 a6.25 6.25 0 1 0 -12.5 0zM1368.75 475 a6.25 6.25 0 1 0 12.5 0 a6.25 6.25 0 1 0 -12.5 0zM1418.75 575 a6.25 6.25 0 1 0 12.5 0 a6.25 6.25 0 1 0 -12.5 0zM1368.75 775 a6.25 6.25 0 1 0 12.5 0 a6.25 6.25 0 1 0 -12.5 0z" fill="black"></path><path d="M418.75 425 a6.25 6.25 0 1 0 12.5 0 a6.25 6.25 0 1 0 -12.5 0zM518.75 1275 a6.25 6.25 0 1 0 12.5 0 a6.25 6.25 0 1 0 -12.5 0zM518.75 1125 a6.25 6.25 0 1 0 12.5 0 a6.25 6.25 0 1 0 -12.5 0zM418.75 625 a6.25 6.25 0 1 0 12.5 0 a6.25 6.25 0 1 0 -12.5 0zM468.75 575 a6.25 6.25 0 1 0 12.5 0 a6.25 6.25 0 1 0 -12.5 0zM518.75 1375 a6.25 6.25 0 1 0 12.5 0 a6.25 6.25 0 1 0 -12.5 0z" fill="black"></path><path d="M1468.75 1075 a6.25 6.25 0 1 0 12.5 0 a6.25 6.25 0 1 0 -12.5 0zM1518.75 975 a6.25 6.25 0 1 0 12.5 0 a6.25 6.25 0 1 0 -12.5 0zM1568.75 1075 a6.25 6.25 0 1 0 12.5 0 a6.25 6.25 0 1 0 -12.5 0zM1518.75 1225 a6.25 6.25 0 1 0 12.5 0 a6.25 6.25 0 1 0 -12.5 0z" fill="black"></path><path d="M368.75 225 a6.25 6.25 0 1 0 12.5 0 a6.25 6.25 0 1 0 -12.5 0zM368.75 1025 a6.25 6.25 0 1 0 12.5 0 a6.25 6.25 0 1 0 -12.5 0zM318.75 375 a6.25 6.25 0 1 0 12.5 0 a6.25 6.25 0 1 0 -12.5 0zM318.75 225 a6.25 6.25 0 1 0 12.5 0 a6.25 6.25 0 1 0 -12.5 0zM268.75 475 a6.25 6.25 0 1 0 12.5 0 a6.25 6.25 0 1 0 -12.5 0zM418.75 225 a6.25 6.25 0 1 0 12.5 0 a6.25 6.25 0 1 0 -12.5 0zM268.75 625 a6.25 6.25 0 1 0 12.5 0 a6.25 6.25 0 1 0 -12.5 0z" fill="black"></path></mask></defs></svg>