<svg xmlns="http://www.w3.org/2000/svg" version="1.1" xmlns:xlink="http://www.w3.org/1999/xlink" xmlns:svgjs="http://svgjs.dev/svgjs" width="1800" height="1300" preserveAspectRatio="none" viewBox="0 0 1800 1300"><g mask="url(&quot;#SvgjsMask2242&quot;)" fill="none"><rect width="1800" height="1300" x="0" y="0" fill="url(&quot;#SvgjsLinearGradient2243&quot;)"></rect><g mask="url(&quot;#SvgjsMask2244&quot;)"><path d="M75 175L275 375L275 425L125 575L125 625L25 725L25 1125" stroke-width="8.33" stroke="rgba(6, 212, 131, 1)"></path><path d="M62.5 175 a12.5 12.5 0 1 0 25 0 a12.5 12.5 0 1 0 -25 0zM12.5 1125 a12.5 12.5 0 1 0 25 0 a12.5 12.5 0 1 0 -25 0z" fill="rgba(6, 212, 131, 1)"></path><path d="M525 525L1025 1025L1375 1025L1475 925" stroke-width="8.33" stroke="rgba(6, 212, 131, 1)"></path><path d="M512.5 525 a12.5 12.5 0 1 0 25 0 a12.5 12.5 0 1 0 -25 0zM1462.5 925 a12.5 12.5 0 1 0 25 0 a12.5 12.5 0 1 0 -25 0z" fill="rgba(6, 212, 131, 1)"></path><path d="M1575 625L1575 675L1775 875L1775 1275" stroke-width="8.33" stroke="rgba(6, 212, 131, 1)"></path><path d="M1562.5 625 a12.5 12.5 0 1 0 25 0 a12.5 12.5 0 1 0 -25 0zM1762.5 1275 a12.5 12.5 0 1 0 25 0 a12.5 12.5 0 1 0 -25 0z" fill="rgba(6, 212, 131, 1)"></path><path d="M675 275L675 575L1075 975L1325 975" stroke-width="8.33" stroke="rgba(6, 212, 131, 1)"></path><path d="M662.5 275 a12.5 12.5 0 1 0 25 0 a12.5 12.5 0 1 0 -25 0zM1312.5 975 a12.5 12.5 0 1 0 25 0 a12.5 12.5 0 1 0 -25 0z" fill="rgba(6, 212, 131, 1)"></path><path d="M675 925L275 525L225 525L175 575L175 1025" stroke-width="8.33" stroke="rgba(6, 212, 131, 1)"></path><path d="M662.5 925 a12.5 12.5 0 1 0 25 0 a12.5 12.5 0 1 0 -25 0zM162.5 1025 a12.5 12.5 0 1 0 25 0 a12.5 12.5 0 1 0 -25 0z" fill="rgba(6, 212, 131, 1)"></path><path d="M625 1175L875 925" stroke-width="8.33" stroke="rgba(6, 212, 131, 1)"></path><path d="M612.5 1175 a12.5 12.5 0 1 0 25 0 a12.5 12.5 0 1 0 -25 0zM862.5 925 a12.5 12.5 0 1 0 25 0 a12.5 12.5 0 1 0 -25 0z" fill="rgba(6, 212, 131, 1)"></path><path d="M1375 525L1775 125L1775 25" stroke-width="8.33" stroke="rgba(6, 212, 131, 1)"></path><path d="M1362.5 525 a12.5 12.5 0 1 0 25 0 a12.5 12.5 0 1 0 -25 0zM1762.5 25 a12.5 12.5 0 1 0 25 0 a12.5 12.5 0 1 0 -25 0z" fill="rgba(6, 212, 131, 1)"></path><path d="M525 875L675 1025L725 1025L825 925L825 875L225 275" stroke-width="8.33" stroke="rgba(6, 212, 131, 1)"></path><path d="M512.5 875 a12.5 12.5 0 1 0 25 0 a12.5 12.5 0 1 0 -25 0zM212.5 275 a12.5 12.5 0 1 0 25 0 a12.5 12.5 0 1 0 -25 0z" fill="rgba(6, 212, 131, 1)"></path><path d="M1125 275L1125 475L975 625L975 825L1025 875L1375 875" stroke-width="8.33" stroke="rgba(6, 212, 131, 1)"></path><path d="M1112.5 275 a12.5 12.5 0 1 0 25 0 a12.5 12.5 0 1 0 -25 0zM1362.5 875 a12.5 12.5 0 1 0 25 0 a12.5 12.5 0 1 0 -25 0z" fill="rgba(6, 212, 131, 1)"></path><path d="M675 1175L875 975L925 975L1225 1275L1625 1275" stroke-width="8.33" stroke="rgba(6, 212, 131, 1)"></path><path d="M662.5 1175 a12.5 12.5 0 1 0 25 0 a12.5 12.5 0 1 0 -25 0zM1612.5 1275 a12.5 12.5 0 1 0 25 0 a12.5 12.5 0 1 0 -25 0z" fill="rgba(6, 212, 131, 1)"></path><path d="M425 375L625 575" stroke-width="8.33" stroke="rgba(6, 212, 131, 1)"></path><path d="M412.5 375 a12.5 12.5 0 1 0 25 0 a12.5 12.5 0 1 0 -25 0zM612.5 575 a12.5 12.5 0 1 0 25 0 a12.5 12.5 0 1 0 -25 0z" fill="rgba(6, 212, 131, 1)"></path><path d="M1425 275L1475 325L1475 375L1025 825" stroke-width="8.33" stroke="rgba(6, 212, 131, 1)"></path><path d="M1412.5 275 a12.5 12.5 0 1 0 25 0 a12.5 12.5 0 1 0 -25 0zM1012.5 825 a12.5 12.5 0 1 0 25 0 a12.5 12.5 0 1 0 -25 0z" fill="rgba(6, 212, 131, 1)"></path><path d="M1775 775L1725 775L1625 675L1625 525L1525 425" stroke-width="8.33" stroke="rgba(6, 212, 131, 1)"></path><path d="M1762.5 775 a12.5 12.5 0 1 0 25 0 a12.5 12.5 0 1 0 -25 0zM1512.5 425 a12.5 12.5 0 1 0 25 0 a12.5 12.5 0 1 0 -25 0z" fill="rgba(6, 212, 131, 1)"></path><path d="M1325 1225L1275 1225L1125 1075L1075 1075" stroke-width="8.33" stroke="rgba(6, 212, 131, 1)"></path><path d="M1312.5 1225 a12.5 12.5 0 1 0 25 0 a12.5 12.5 0 1 0 -25 0zM1062.5 1075 a12.5 12.5 0 1 0 25 0 a12.5 12.5 0 1 0 -25 0z" fill="rgba(6, 212, 131, 1)"></path><path d="M1625 75L1575 25L675 25" stroke-width="8.33" stroke="rgba(6, 212, 131, 1)"></path><path d="M1612.5 75 a12.5 12.5 0 1 0 25 0 a12.5 12.5 0 1 0 -25 0zM662.5 25 a12.5 12.5 0 1 0 25 0 a12.5 12.5 0 1 0 -25 0z" fill="rgba(6, 212, 131, 1)"></path><path d="M1025 125L725 425L725 575L925 775" stroke-width="8.33" stroke="rgba(6, 212, 131, 1)"></path><path d="M1012.5 125 a12.5 12.5 0 1 0 25 0 a12.5 12.5 0 1 0 -25 0zM912.5 775 a12.5 12.5 0 1 0 25 0 a12.5 12.5 0 1 0 -25 0z" fill="rgba(6, 212, 131, 1)"></path><path d="M375 825L425 775L475 775" stroke-width="8.33" stroke="rgba(6, 212, 131, 1)"></path><path d="M362.5 825 a12.5 12.5 0 1 0 25 0 a12.5 12.5 0 1 0 -25 0zM462.5 775 a12.5 12.5 0 1 0 25 0 a12.5 12.5 0 1 0 -25 0z" fill="rgba(6, 212, 131, 1)"></path><path d="M925 275L1075 125L1075 75" stroke-width="8.33" stroke="rgba(6, 212, 131, 1)"></path><path d="M912.5 275 a12.5 12.5 0 1 0 25 0 a12.5 12.5 0 1 0 -25 0zM1062.5 75 a12.5 12.5 0 1 0 25 0 a12.5 12.5 0 1 0 -25 0z" fill="rgba(6, 212, 131, 1)"></path><path d="M1025 1125L925 1025L875 1025L625 1275L75 1275" stroke-width="8.33" stroke="rgba(6, 212, 131, 1)"></path><path d="M1012.5 1125 a12.5 12.5 0 1 0 25 0 a12.5 12.5 0 1 0 -25 0zM62.5 1275 a12.5 12.5 0 1 0 25 0 a12.5 12.5 0 1 0 -25 0z" fill="rgba(6, 212, 131, 1)"></path><path d="M1225 175L1425 375" stroke-width="8.33" stroke="rgba(6, 212, 131, 1)"></path><path d="M1212.5 175 a12.5 12.5 0 1 0 25 0 a12.5 12.5 0 1 0 -25 0zM1412.5 375 a12.5 12.5 0 1 0 25 0 a12.5 12.5 0 1 0 -25 0z" fill="rgba(6, 212, 131, 1)"></path><path d="M1375 125L1425 75L1575 75L1675 175" stroke-width="8.33" stroke="rgba(6, 212, 131, 1)"></path><path d="M1362.5 125 a12.5 12.5 0 1 0 25 0 a12.5 12.5 0 1 0 -25 0zM1662.5 175 a12.5 12.5 0 1 0 25 0 a12.5 12.5 0 1 0 -25 0z" fill="rgba(6, 212, 131, 1)"></path><path d="M1375 1175L1375 1075L1625 825L1625 775L1475 625L1275 625L1225 675L1225 825" stroke-width="8.33" stroke="rgba(6, 212, 131, 1)"></path><path d="M1362.5 1175 a12.5 12.5 0 1 0 25 0 a12.5 12.5 0 1 0 -25 0zM1212.5 825 a12.5 12.5 0 1 0 25 0 a12.5 12.5 0 1 0 -25 0z" fill="rgba(6, 212, 131, 1)"></path><path d="M725 225L875 75L1025 75" stroke-width="8.33" stroke="rgba(6, 212, 131, 1)"></path><path d="M712.5 225 a12.5 12.5 0 1 0 25 0 a12.5 12.5 0 1 0 -25 0zM1012.5 75 a12.5 12.5 0 1 0 25 0 a12.5 12.5 0 1 0 -25 0z" fill="rgba(6, 212, 131, 1)"></path><path d="M925 325L875 325L775 425L775 525L925 675L925 725" stroke-width="8.33" stroke="rgba(6, 212, 131, 1)"></path><path d="M912.5 325 a12.5 12.5 0 1 0 25 0 a12.5 12.5 0 1 0 -25 0zM912.5 725 a12.5 12.5 0 1 0 25 0 a12.5 12.5 0 1 0 -25 0z" fill="rgba(6, 212, 131, 1)"></path><path d="M375 75L25 75" stroke-width="8.33" stroke="rgba(6, 212, 131, 1)"></path><path d="M362.5 75 a12.5 12.5 0 1 0 25 0 a12.5 12.5 0 1 0 -25 0zM12.5 75 a12.5 12.5 0 1 0 25 0 a12.5 12.5 0 1 0 -25 0z" fill="rgba(6, 212, 131, 1)"></path><path d="M1175 1275L1075 1175L775 1175L675 1275" stroke-width="8.33" stroke="rgba(6, 212, 131, 1)"></path><path d="M1162.5 1275 a12.5 12.5 0 1 0 25 0 a12.5 12.5 0 1 0 -25 0zM662.5 1275 a12.5 12.5 0 1 0 25 0 a12.5 12.5 0 1 0 -25 0z" fill="rgba(6, 212, 131, 1)"></path><path d="M1075 275L1275 75L1375 75" stroke-width="8.33" stroke="rgba(6, 212, 131, 1)"></path><path d="M1062.5 275 a12.5 12.5 0 1 0 25 0 a12.5 12.5 0 1 0 -25 0zM1362.5 75 a12.5 12.5 0 1 0 25 0 a12.5 12.5 0 1 0 -25 0z" fill="rgba(6, 212, 131, 1)"></path><path d="M1375 375L1375 425L1025 775" stroke-width="8.33" stroke="rgba(6, 212, 131, 1)"></path><path d="M1362.5 375 a12.5 12.5 0 1 0 25 0 a12.5 12.5 0 1 0 -25 0zM1012.5 775 a12.5 12.5 0 1 0 25 0 a12.5 12.5 0 1 0 -25 0z" fill="rgba(6, 212, 131, 1)"></path><path d="M1675 925L1375 1225" stroke-width="8.33" stroke="rgba(6, 212, 131, 1)"></path><path d="M1662.5 925 a12.5 12.5 0 1 0 25 0 a12.5 12.5 0 1 0 -25 0zM1362.5 1225 a12.5 12.5 0 1 0 25 0 a12.5 12.5 0 1 0 -25 0z" fill="rgba(6, 212, 131, 1)"></path><path d="M1725 1275L1675 1225L1675 975L1725 925L1725 875L1675 825" stroke-width="8.33" stroke="rgba(6, 212, 131, 1)"></path><path d="M1712.5 1275 a12.5 12.5 0 1 0 25 0 a12.5 12.5 0 1 0 -25 0zM1662.5 825 a12.5 12.5 0 1 0 25 0 a12.5 12.5 0 1 0 -25 0z" fill="rgba(6, 212, 131, 1)"></path><path d="M625 125L625 475" stroke-width="8.33" stroke="rgba(6, 212, 131, 1)"></path><path d="M612.5 125 a12.5 12.5 0 1 0 25 0 a12.5 12.5 0 1 0 -25 0zM612.5 475 a12.5 12.5 0 1 0 25 0 a12.5 12.5 0 1 0 -25 0z" fill="rgba(6, 212, 131, 1)"></path><path d="M1175 575L1025 725" stroke-width="8.33" stroke="rgba(6, 212, 131, 1)"></path><path d="M1162.5 575 a12.5 12.5 0 1 0 25 0 a12.5 12.5 0 1 0 -25 0zM1012.5 725 a12.5 12.5 0 1 0 25 0 a12.5 12.5 0 1 0 -25 0z" fill="rgba(6, 212, 131, 1)"></path><path d="M1675 575L1675 425L1625 375L1625 325L1675 275L1775 275" stroke-width="8.33" stroke="rgba(6, 212, 131, 1)"></path><path d="M1662.5 575 a12.5 12.5 0 1 0 25 0 a12.5 12.5 0 1 0 -25 0zM1762.5 275 a12.5 12.5 0 1 0 25 0 a12.5 12.5 0 1 0 -25 0z" fill="rgba(6, 212, 131, 1)"></path><path d="M1575 225L1575 275L1525 325" stroke-width="8.33" stroke="rgba(6, 212, 131, 1)"></path><path d="M1562.5 225 a12.5 12.5 0 1 0 25 0 a12.5 12.5 0 1 0 -25 0zM1512.5 325 a12.5 12.5 0 1 0 25 0 a12.5 12.5 0 1 0 -25 0z" fill="rgba(6, 212, 131, 1)"></path><path d="M325 625L225 725L225 1225" stroke-width="8.33" stroke="rgba(6, 212, 131, 1)"></path><path d="M312.5 625 a12.5 12.5 0 1 0 25 0 a12.5 12.5 0 1 0 -25 0zM212.5 1225 a12.5 12.5 0 1 0 25 0 a12.5 12.5 0 1 0 -25 0z" fill="rgba(6, 212, 131, 1)"></path><path d="M1025 225L1075 225L1225 75" stroke-width="8.33" stroke="rgba(6, 212, 131, 1)"></path><path d="M1012.5 225 a12.5 12.5 0 1 0 25 0 a12.5 12.5 0 1 0 -25 0zM1212.5 75 a12.5 12.5 0 1 0 25 0 a12.5 12.5 0 1 0 -25 0z" fill="rgba(6, 212, 131, 1)"></path><path d="M475 925L425 875L425 825" stroke-width="8.33" stroke="rgba(6, 212, 131, 1)"></path><path d="M462.5 925 a12.5 12.5 0 1 0 25 0 a12.5 12.5 0 1 0 -25 0zM412.5 825 a12.5 12.5 0 1 0 25 0 a12.5 12.5 0 1 0 -25 0z" fill="rgba(6, 212, 131, 1)"></path><path d="M1525 1025L1425 1125" stroke-width="8.33" stroke="rgba(6, 212, 131, 1)"></path><path d="M1512.5 1025 a12.5 12.5 0 1 0 25 0 a12.5 12.5 0 1 0 -25 0zM1412.5 1125 a12.5 12.5 0 1 0 25 0 a12.5 12.5 0 1 0 -25 0z" fill="rgba(6, 212, 131, 1)"></path><path d="M325 275L175 125L25 125" stroke-width="8.33" stroke="rgba(6, 212, 131, 1)"></path><path d="M312.5 275 a12.5 12.5 0 1 0 25 0 a12.5 12.5 0 1 0 -25 0zM12.5 125 a12.5 12.5 0 1 0 25 0 a12.5 12.5 0 1 0 -25 0z" fill="rgba(6, 212, 131, 1)"></path><path d="M925 1225L775 1225L725 1275" stroke-width="8.33" stroke="rgba(6, 212, 131, 1)"></path><path d="M912.5 1225 a12.5 12.5 0 1 0 25 0 a12.5 12.5 0 1 0 -25 0zM712.5 1275 a12.5 12.5 0 1 0 25 0 a12.5 12.5 0 1 0 -25 0z" fill="rgba(6, 212, 131, 1)"></path><path d="M975 525L975 575L925 625" stroke-width="8.33" stroke="rgba(6, 212, 131, 1)"></path><path d="M962.5 525 a12.5 12.5 0 1 0 25 0 a12.5 12.5 0 1 0 -25 0zM912.5 625 a12.5 12.5 0 1 0 25 0 a12.5 12.5 0 1 0 -25 0z" fill="rgba(6, 212, 131, 1)"></path><path d="M375 1225L625 1225" stroke-width="8.33" stroke="rgba(6, 212, 131, 1)"></path><path d="M362.5 1225 a12.5 12.5 0 1 0 25 0 a12.5 12.5 0 1 0 -25 0zM612.5 1225 a12.5 12.5 0 1 0 25 0 a12.5 12.5 0 1 0 -25 0z" fill="rgba(6, 212, 131, 1)"></path><path d="M25 1225L175 1225" stroke-width="8.33" stroke="rgba(6, 212, 131, 1)"></path><path d="M12.5 1225 a12.5 12.5 0 1 0 25 0 a12.5 12.5 0 1 0 -25 0zM162.5 1225 a12.5 12.5 0 1 0 25 0 a12.5 12.5 0 1 0 -25 0z" fill="rgba(6, 212, 131, 1)"></path><path d="M375 25L575 225" stroke-width="8.33" stroke="rgba(6, 212, 131, 1)"></path><path d="M362.5 25 a12.5 12.5 0 1 0 25 0 a12.5 12.5 0 1 0 -25 0zM562.5 225 a12.5 12.5 0 1 0 25 0 a12.5 12.5 0 1 0 -25 0z" fill="rgba(6, 212, 131, 1)"></path><path d="M525 1125L375 1125L275 1225" stroke-width="8.33" stroke="rgba(6, 212, 131, 1)"></path><path d="M512.5 1125 a12.5 12.5 0 1 0 25 0 a12.5 12.5 0 1 0 -25 0zM262.5 1225 a12.5 12.5 0 1 0 25 0 a12.5 12.5 0 1 0 -25 0z" fill="rgba(6, 212, 131, 1)"></path><path d="M875 375L975 475L1075 475" stroke-width="8.33" stroke="rgba(6, 212, 131, 1)"></path><path d="M862.5 375 a12.5 12.5 0 1 0 25 0 a12.5 12.5 0 1 0 -25 0zM1062.5 475 a12.5 12.5 0 1 0 25 0 a12.5 12.5 0 1 0 -25 0z" fill="rgba(6, 212, 131, 1)"></path><path d="M1275 325L1325 375L1325 425L1225 525L1125 525L1025 625L1025 675" stroke-width="8.33" stroke="rgba(6, 212, 131, 1)"></path><path d="M1262.5 325 a12.5 12.5 0 1 0 25 0 a12.5 12.5 0 1 0 -25 0zM1012.5 675 a12.5 12.5 0 1 0 25 0 a12.5 12.5 0 1 0 -25 0z" fill="rgba(6, 212, 131, 1)"></path><path d="M1375 175L1375 275" stroke-width="8.33" stroke="rgba(6, 212, 131, 1)"></path><path d="M1362.5 175 a12.5 12.5 0 1 0 25 0 a12.5 12.5 0 1 0 -25 0zM1362.5 275 a12.5 12.5 0 1 0 25 0 a12.5 12.5 0 1 0 -25 0z" fill="rgba(6, 212, 131, 1)"></path><path d="M1425 575L1575 575" stroke-width="8.33" stroke="rgba(6, 212, 131, 1)"></path><path d="M1412.5 575 a12.5 12.5 0 1 0 25 0 a12.5 12.5 0 1 0 -25 0zM1562.5 575 a12.5 12.5 0 1 0 25 0 a12.5 12.5 0 1 0 -25 0z" fill="rgba(6, 212, 131, 1)"></path><path d="M1725 375L1725 625L1775 675L1775 725" stroke-width="8.33" stroke="rgba(6, 212, 131, 1)"></path><path d="M1712.5 375 a12.5 12.5 0 1 0 25 0 a12.5 12.5 0 1 0 -25 0zM1762.5 725 a12.5 12.5 0 1 0 25 0 a12.5 12.5 0 1 0 -25 0z" fill="rgba(6, 212, 131, 1)"></path><path d="M425 975L525 975L625 1075L675 1075" stroke-width="8.33" stroke="rgba(6, 212, 131, 1)"></path><path d="M412.5 975 a12.5 12.5 0 1 0 25 0 a12.5 12.5 0 1 0 -25 0zM662.5 1075 a12.5 12.5 0 1 0 25 0 a12.5 12.5 0 1 0 -25 0z" fill="rgba(6, 212, 131, 1)"></path><path d="M75 975L75 725L125 675" stroke-width="8.33" stroke="rgba(6, 212, 131, 1)"></path><path d="M62.5 975 a12.5 12.5 0 1 0 25 0 a12.5 12.5 0 1 0 -25 0zM112.5 675 a12.5 12.5 0 1 0 25 0 a12.5 12.5 0 1 0 -25 0z" fill="rgba(6, 212, 131, 1)"></path><path d="M375 575L475 575L775 875L775 925L725 975" stroke-width="8.33" stroke="rgba(6, 212, 131, 1)"></path><path d="M362.5 575 a12.5 12.5 0 1 0 25 0 a12.5 12.5 0 1 0 -25 0zM712.5 975 a12.5 12.5 0 1 0 25 0 a12.5 12.5 0 1 0 -25 0z" fill="rgba(6, 212, 131, 1)"></path><path d="M1725 1025L1725 1225" stroke-width="8.33" stroke="rgba(6, 212, 131, 1)"></path><path d="M1712.5 1025 a12.5 12.5 0 1 0 25 0 a12.5 12.5 0 1 0 -25 0zM1712.5 1225 a12.5 12.5 0 1 0 25 0 a12.5 12.5 0 1 0 -25 0z" fill="rgba(6, 212, 131, 1)"></path><path d="M475 75L575 175" stroke-width="8.33" stroke="rgba(6, 212, 131, 1)"></path><path d="M462.5 75 a12.5 12.5 0 1 0 25 0 a12.5 12.5 0 1 0 -25 0zM562.5 175 a12.5 12.5 0 1 0 25 0 a12.5 12.5 0 1 0 -25 0z" fill="rgba(6, 212, 131, 1)"></path><path d="M1425 1225L1625 1225" stroke-width="8.33" stroke="rgba(6, 212, 131, 1)"></path><path d="M1412.5 1225 a12.5 12.5 0 1 0 25 0 a12.5 12.5 0 1 0 -25 0zM1612.5 1225 a12.5 12.5 0 1 0 25 0 a12.5 12.5 0 1 0 -25 0z" fill="rgba(6, 212, 131, 1)"></path><path d="M625 25L475 25" stroke-width="8.33" stroke="rgba(6, 212, 131, 1)"></path><path d="M612.5 25 a12.5 12.5 0 1 0 25 0 a12.5 12.5 0 1 0 -25 0zM462.5 25 a12.5 12.5 0 1 0 25 0 a12.5 12.5 0 1 0 -25 0z" fill="rgba(6, 212, 131, 1)"></path><path d="M525 1025L275 1025" stroke-width="8.33" stroke="rgba(6, 212, 131, 1)"></path><path d="M512.5 1025 a12.5 12.5 0 1 0 25 0 a12.5 12.5 0 1 0 -25 0zM262.5 1025 a12.5 12.5 0 1 0 25 0 a12.5 12.5 0 1 0 -25 0z" fill="rgba(6, 212, 131, 1)"></path><path d="M125 825L125 1175" stroke-width="8.33" stroke="rgba(6, 212, 131, 1)"></path><path d="M112.5 825 a12.5 12.5 0 1 0 25 0 a12.5 12.5 0 1 0 -25 0zM112.5 1175 a12.5 12.5 0 1 0 25 0 a12.5 12.5 0 1 0 -25 0z" fill="rgba(6, 212, 131, 1)"></path><path d="M775 1275L1125 1275" stroke-width="8.33" stroke="rgba(6, 212, 131, 1)"></path><path d="M762.5 1275 a12.5 12.5 0 1 0 25 0 a12.5 12.5 0 1 0 -25 0zM1112.5 1275 a12.5 12.5 0 1 0 25 0 a12.5 12.5 0 1 0 -25 0z" fill="rgba(6, 212, 131, 1)"></path><path d="M525 675L725 875L725 925" stroke-width="8.33" stroke="rgba(6, 212, 131, 1)"></path><path d="M512.5 675 a12.5 12.5 0 1 0 25 0 a12.5 12.5 0 1 0 -25 0zM712.5 925 a12.5 12.5 0 1 0 25 0 a12.5 12.5 0 1 0 -25 0z" fill="rgba(6, 212, 131, 1)"></path><path d="M175 375L175 325L125 275L25 275" stroke-width="8.33" stroke="rgba(6, 212, 131, 1)"></path><path d="M162.5 375 a12.5 12.5 0 1 0 25 0 a12.5 12.5 0 1 0 -25 0zM12.5 275 a12.5 12.5 0 1 0 25 0 a12.5 12.5 0 1 0 -25 0z" fill="rgba(6, 212, 131, 1)"></path><path d="M1575 125L1425 125" stroke-width="8.33" stroke="rgba(6, 212, 131, 1)"></path><path d="M1562.5 125 a12.5 12.5 0 1 0 25 0 a12.5 12.5 0 1 0 -25 0zM1412.5 125 a12.5 12.5 0 1 0 25 0 a12.5 12.5 0 1 0 -25 0z" fill="rgba(6, 212, 131, 1)"></path><path d="M775 75L675 175L675 225" stroke-width="8.33" stroke="rgba(6, 212, 131, 1)"></path><path d="M762.5 75 a12.5 12.5 0 1 0 25 0 a12.5 12.5 0 1 0 -25 0zM662.5 225 a12.5 12.5 0 1 0 25 0 a12.5 12.5 0 1 0 -25 0z" fill="rgba(6, 212, 131, 1)"></path><path d="M1075 375L1075 325L1025 275L975 275" stroke-width="8.33" stroke="rgba(6, 212, 131, 1)"></path><path d="M1062.5 375 a12.5 12.5 0 1 0 25 0 a12.5 12.5 0 1 0 -25 0zM962.5 275 a12.5 12.5 0 1 0 25 0 a12.5 12.5 0 1 0 -25 0z" fill="rgba(6, 212, 131, 1)"></path><path d="M825 475L925 575" stroke-width="8.33" stroke="rgba(6, 212, 131, 1)"></path><path d="M812.5 475 a12.5 12.5 0 1 0 25 0 a12.5 12.5 0 1 0 -25 0zM912.5 575 a12.5 12.5 0 1 0 25 0 a12.5 12.5 0 1 0 -25 0z" fill="rgba(6, 212, 131, 1)"></path><path d="M525 375L575 425L575 475" stroke-width="8.33" stroke="rgba(6, 212, 131, 1)"></path><path d="M512.5 375 a12.5 12.5 0 1 0 25 0 a12.5 12.5 0 1 0 -25 0zM562.5 475 a12.5 12.5 0 1 0 25 0 a12.5 12.5 0 1 0 -25 0z" fill="rgba(6, 212, 131, 1)"></path><path d="M375 925L275 825L275 725L325 675L375 675L425 725" stroke-width="8.33" stroke="rgba(6, 212, 131, 1)"></path><path d="M362.5 925 a12.5 12.5 0 1 0 25 0 a12.5 12.5 0 1 0 -25 0zM412.5 725 a12.5 12.5 0 1 0 25 0 a12.5 12.5 0 1 0 -25 0z" fill="rgba(6, 212, 131, 1)"></path><path d="M75 525L125 525L225 425L225 375" stroke-width="8.33" stroke="rgba(6, 212, 131, 1)"></path><path d="M62.5 525 a12.5 12.5 0 1 0 25 0 a12.5 12.5 0 1 0 -25 0zM212.5 375 a12.5 12.5 0 1 0 25 0 a12.5 12.5 0 1 0 -25 0z" fill="rgba(6, 212, 131, 1)"></path><path d="M475 275L475 175L425 125L225 125" stroke-width="8.33" stroke="rgba(6, 212, 131, 1)"></path><path d="M462.5 275 a12.5 12.5 0 1 0 25 0 a12.5 12.5 0 1 0 -25 0zM212.5 125 a12.5 12.5 0 1 0 25 0 a12.5 12.5 0 1 0 -25 0z" fill="rgba(6, 212, 131, 1)"></path><path d="M1075 425L975 325" stroke-width="8.33" stroke="rgba(6, 212, 131, 1)"></path><path d="M1062.5 425 a12.5 12.5 0 1 0 25 0 a12.5 12.5 0 1 0 -25 0zM962.5 325 a12.5 12.5 0 1 0 25 0 a12.5 12.5 0 1 0 -25 0z" fill="rgba(6, 212, 131, 1)"></path><path d="M275 25L25 25" stroke-width="8.33" stroke="rgba(6, 212, 131, 1)"></path><path d="M262.5 25 a12.5 12.5 0 1 0 25 0 a12.5 12.5 0 1 0 -25 0zM12.5 25 a12.5 12.5 0 1 0 25 0 a12.5 12.5 0 1 0 -25 0z" fill="rgba(6, 212, 131, 1)"></path><path d="M75 425L75 475L25 525L25 675" stroke-width="8.33" stroke="rgba(6, 212, 131, 1)"></path><path d="M62.5 425 a12.5 12.5 0 1 0 25 0 a12.5 12.5 0 1 0 -25 0zM12.5 675 a12.5 12.5 0 1 0 25 0 a12.5 12.5 0 1 0 -25 0z" fill="rgba(6, 212, 131, 1)"></path><path d="M1475 675L1475 875" stroke-width="8.33" stroke="rgba(6, 212, 131, 1)"></path><path d="M1462.5 675 a12.5 12.5 0 1 0 25 0 a12.5 12.5 0 1 0 -25 0zM1462.5 875 a12.5 12.5 0 1 0 25 0 a12.5 12.5 0 1 0 -25 0z" fill="rgba(6, 212, 131, 1)"></path><path d="M75 1175L75 1025" stroke-width="8.33" stroke="rgba(6, 212, 131, 1)"></path><path d="M62.5 1175 a12.5 12.5 0 1 0 25 0 a12.5 12.5 0 1 0 -25 0zM62.5 1025 a12.5 12.5 0 1 0 25 0 a12.5 12.5 0 1 0 -25 0z" fill="rgba(6, 212, 131, 1)"></path><path d="M325 725L325 825" stroke-width="8.33" stroke="rgba(6, 212, 131, 1)"></path><path d="M312.5 725 a12.5 12.5 0 1 0 25 0 a12.5 12.5 0 1 0 -25 0zM312.5 825 a12.5 12.5 0 1 0 25 0 a12.5 12.5 0 1 0 -25 0z" fill="rgba(6, 212, 131, 1)"></path><path d="M1525 225L1575 175L1625 175" stroke-width="8.33" stroke="rgba(6, 212, 131, 1)"></path><path d="M1512.5 225 a12.5 12.5 0 1 0 25 0 a12.5 12.5 0 1 0 -25 0zM1612.5 175 a12.5 12.5 0 1 0 25 0 a12.5 12.5 0 1 0 -25 0z" fill="rgba(6, 212, 131, 1)"></path><path d="M1275 925L1075 925" stroke-width="8.33" stroke="rgba(6, 212, 131, 1)"></path><path d="M1262.5 925 a12.5 12.5 0 1 0 25 0 a12.5 12.5 0 1 0 -25 0zM1062.5 925 a12.5 12.5 0 1 0 25 0 a12.5 12.5 0 1 0 -25 0z" fill="rgba(6, 212, 131, 1)"></path><path d="M1775 475L1775 625" stroke-width="8.33" stroke="rgba(6, 212, 131, 1)"></path><path d="M1762.5 475 a12.5 12.5 0 1 0 25 0 a12.5 12.5 0 1 0 -25 0zM1762.5 625 a12.5 12.5 0 1 0 25 0 a12.5 12.5 0 1 0 -25 0z" fill="rgba(6, 212, 131, 1)"></path><path d="M1675 125L1675 25" stroke-width="8.33" stroke="rgba(6, 212, 131, 1)"></path><path d="M1662.5 125 a12.5 12.5 0 1 0 25 0 a12.5 12.5 0 1 0 -25 0zM1662.5 25 a12.5 12.5 0 1 0 25 0 a12.5 12.5 0 1 0 -25 0z" fill="rgba(6, 212, 131, 1)"></path><path d="M1725 25L1725 125" stroke-width="8.33" stroke="rgba(6, 212, 131, 1)"></path><path d="M1712.5 25 a12.5 12.5 0 1 0 25 0 a12.5 12.5 0 1 0 -25 0zM1712.5 125 a12.5 12.5 0 1 0 25 0 a12.5 12.5 0 1 0 -25 0z" fill="rgba(6, 212, 131, 1)"></path><path d="M375 275L275 175" stroke-width="8.33" stroke="rgba(6, 212, 131, 1)"></path><path d="M362.5 275 a12.5 12.5 0 1 0 25 0 a12.5 12.5 0 1 0 -25 0zM262.5 175 a12.5 12.5 0 1 0 25 0 a12.5 12.5 0 1 0 -25 0z" fill="rgba(6, 212, 131, 1)"></path><path d="M425 275L425 175" stroke-width="8.33" stroke="rgba(6, 212, 131, 1)"></path><path d="M412.5 275 a12.5 12.5 0 1 0 25 0 a12.5 12.5 0 1 0 -25 0zM412.5 175 a12.5 12.5 0 1 0 25 0 a12.5 12.5 0 1 0 -25 0z" fill="rgba(6, 212, 131, 1)"></path><path d="M1575 1125L1625 1075L1625 1025" stroke-width="8.33" stroke="rgba(6, 212, 131, 1)"></path><path d="M1562.5 1125 a12.5 12.5 0 1 0 25 0 a12.5 12.5 0 1 0 -25 0zM1612.5 1025 a12.5 12.5 0 1 0 25 0 a12.5 12.5 0 1 0 -25 0z" fill="rgba(6, 212, 131, 1)"></path><path d="M1425 775L1425 675" stroke-width="8.33" stroke="rgba(6, 212, 131, 1)"></path><path d="M1412.5 775 a12.5 12.5 0 1 0 25 0 a12.5 12.5 0 1 0 -25 0zM1412.5 675 a12.5 12.5 0 1 0 25 0 a12.5 12.5 0 1 0 -25 0z" fill="rgba(6, 212, 131, 1)"></path><path d="M1275 375L1225 325L1175 325" stroke-width="8.33" stroke="rgba(6, 212, 131, 1)"></path><path d="M1262.5 375 a12.5 12.5 0 1 0 25 0 a12.5 12.5 0 1 0 -25 0zM1162.5 325 a12.5 12.5 0 1 0 25 0 a12.5 12.5 0 1 0 -25 0z" fill="rgba(6, 212, 131, 1)"></path><path d="M25 325L75 325L175 425" stroke-width="8.33" stroke="rgba(6, 212, 131, 1)"></path><path d="M12.5 325 a12.5 12.5 0 1 0 25 0 a12.5 12.5 0 1 0 -25 0zM162.5 425 a12.5 12.5 0 1 0 25 0 a12.5 12.5 0 1 0 -25 0z" fill="rgba(6, 212, 131, 1)"></path><path d="M425 325L325 325" stroke-width="8.33" stroke="rgba(6, 212, 131, 1)"></path><path d="M412.5 325 a12.5 12.5 0 1 0 25 0 a12.5 12.5 0 1 0 -25 0zM312.5 325 a12.5 12.5 0 1 0 25 0 a12.5 12.5 0 1 0 -25 0z" fill="rgba(6, 212, 131, 1)"></path></g></g><defs><mask id="SvgjsMask2242"><rect width="1800" height="1300" fill="#ffffff"></rect></mask><linearGradient x1="50%" y1="0%" x2="50%" y2="100%" gradientUnits="userSpaceOnUse" id="SvgjsLinearGradient2243"><stop stop-color="#0e2a47" offset="0"></stop><stop stop-color="rgba(223, 14, 14, 1)" offset="1"></stop></linearGradient><mask id="SvgjsMask2244"><rect width="1800" height="1300" fill="white"></rect><path d="M68.75 175 a6.25 6.25 0 1 0 12.5 0 a6.25 6.25 0 1 0 -12.5 0zM18.75 1125 a6.25 6.25 0 1 0 12.5 0 a6.25 6.25 0 1 0 -12.5 0z" fill="black"></path><path d="M518.75 525 a6.25 6.25 0 1 0 12.5 0 a6.25 6.25 0 1 0 -12.5 0zM1468.75 925 a6.25 6.25 0 1 0 12.5 0 a6.25 6.25 0 1 0 -12.5 0z" fill="black"></path><path d="M1568.75 625 a6.25 6.25 0 1 0 12.5 0 a6.25 6.25 0 1 0 -12.5 0zM1768.75 1275 a6.25 6.25 0 1 0 12.5 0 a6.25 6.25 0 1 0 -12.5 0z" fill="black"></path><path d="M668.75 275 a6.25 6.25 0 1 0 12.5 0 a6.25 6.25 0 1 0 -12.5 0zM1318.75 975 a6.25 6.25 0 1 0 12.5 0 a6.25 6.25 0 1 0 -12.5 0z" fill="black"></path><path d="M668.75 925 a6.25 6.25 0 1 0 12.5 0 a6.25 6.25 0 1 0 -12.5 0zM168.75 1025 a6.25 6.25 0 1 0 12.5 0 a6.25 6.25 0 1 0 -12.5 0z" fill="black"></path><path d="M618.75 1175 a6.25 6.25 0 1 0 12.5 0 a6.25 6.25 0 1 0 -12.5 0zM868.75 925 a6.25 6.25 0 1 0 12.5 0 a6.25 6.25 0 1 0 -12.5 0z" fill="black"></path><path d="M1368.75 525 a6.25 6.25 0 1 0 12.5 0 a6.25 6.25 0 1 0 -12.5 0zM1768.75 25 a6.25 6.25 0 1 0 12.5 0 a6.25 6.25 0 1 0 -12.5 0z" fill="black"></path><path d="M518.75 875 a6.25 6.25 0 1 0 12.5 0 a6.25 6.25 0 1 0 -12.5 0zM218.75 275 a6.25 6.25 0 1 0 12.5 0 a6.25 6.25 0 1 0 -12.5 0z" fill="black"></path><path d="M1118.75 275 a6.25 6.25 0 1 0 12.5 0 a6.25 6.25 0 1 0 -12.5 0zM1368.75 875 a6.25 6.25 0 1 0 12.5 0 a6.25 6.25 0 1 0 -12.5 0z" fill="black"></path><path d="M668.75 1175 a6.25 6.25 0 1 0 12.5 0 a6.25 6.25 0 1 0 -12.5 0zM1618.75 1275 a6.25 6.25 0 1 0 12.5 0 a6.25 6.25 0 1 0 -12.5 0z" fill="black"></path><path d="M418.75 375 a6.25 6.25 0 1 0 12.5 0 a6.25 6.25 0 1 0 -12.5 0zM618.75 575 a6.25 6.25 0 1 0 12.5 0 a6.25 6.25 0 1 0 -12.5 0z" fill="black"></path><path d="M1418.75 275 a6.25 6.25 0 1 0 12.5 0 a6.25 6.25 0 1 0 -12.5 0zM1018.75 825 a6.25 6.25 0 1 0 12.5 0 a6.25 6.25 0 1 0 -12.5 0z" fill="black"></path><path d="M1768.75 775 a6.25 6.25 0 1 0 12.5 0 a6.25 6.25 0 1 0 -12.5 0zM1518.75 425 a6.25 6.25 0 1 0 12.5 0 a6.25 6.25 0 1 0 -12.5 0z" fill="black"></path><path d="M1318.75 1225 a6.25 6.25 0 1 0 12.5 0 a6.25 6.25 0 1 0 -12.5 0zM1068.75 1075 a6.25 6.25 0 1 0 12.5 0 a6.25 6.25 0 1 0 -12.5 0z" fill="black"></path><path d="M1618.75 75 a6.25 6.25 0 1 0 12.5 0 a6.25 6.25 0 1 0 -12.5 0zM668.75 25 a6.25 6.25 0 1 0 12.5 0 a6.25 6.25 0 1 0 -12.5 0z" fill="black"></path><path d="M1018.75 125 a6.25 6.25 0 1 0 12.5 0 a6.25 6.25 0 1 0 -12.5 0zM918.75 775 a6.25 6.25 0 1 0 12.5 0 a6.25 6.25 0 1 0 -12.5 0z" fill="black"></path><path d="M368.75 825 a6.25 6.25 0 1 0 12.5 0 a6.25 6.25 0 1 0 -12.5 0zM468.75 775 a6.25 6.25 0 1 0 12.5 0 a6.25 6.25 0 1 0 -12.5 0z" fill="black"></path><path d="M918.75 275 a6.25 6.25 0 1 0 12.5 0 a6.25 6.25 0 1 0 -12.5 0zM1068.75 75 a6.25 6.25 0 1 0 12.5 0 a6.25 6.25 0 1 0 -12.5 0z" fill="black"></path><path d="M1018.75 1125 a6.25 6.25 0 1 0 12.5 0 a6.25 6.25 0 1 0 -12.5 0zM68.75 1275 a6.25 6.25 0 1 0 12.5 0 a6.25 6.25 0 1 0 -12.5 0z" fill="black"></path><path d="M1218.75 175 a6.25 6.25 0 1 0 12.5 0 a6.25 6.25 0 1 0 -12.5 0zM1418.75 375 a6.25 6.25 0 1 0 12.5 0 a6.25 6.25 0 1 0 -12.5 0z" fill="black"></path><path d="M1368.75 125 a6.25 6.25 0 1 0 12.5 0 a6.25 6.25 0 1 0 -12.5 0zM1668.75 175 a6.25 6.25 0 1 0 12.5 0 a6.25 6.25 0 1 0 -12.5 0z" fill="black"></path><path d="M1368.75 1175 a6.25 6.25 0 1 0 12.5 0 a6.25 6.25 0 1 0 -12.5 0zM1218.75 825 a6.25 6.25 0 1 0 12.5 0 a6.25 6.25 0 1 0 -12.5 0z" fill="black"></path><path d="M718.75 225 a6.25 6.25 0 1 0 12.5 0 a6.25 6.25 0 1 0 -12.5 0zM1018.75 75 a6.25 6.25 0 1 0 12.5 0 a6.25 6.25 0 1 0 -12.5 0z" fill="black"></path><path d="M918.75 325 a6.25 6.25 0 1 0 12.5 0 a6.25 6.25 0 1 0 -12.5 0zM918.75 725 a6.25 6.25 0 1 0 12.5 0 a6.25 6.25 0 1 0 -12.5 0z" fill="black"></path><path d="M368.75 75 a6.25 6.25 0 1 0 12.5 0 a6.25 6.25 0 1 0 -12.5 0zM18.75 75 a6.25 6.25 0 1 0 12.5 0 a6.25 6.25 0 1 0 -12.5 0z" fill="black"></path><path d="M1168.75 1275 a6.25 6.25 0 1 0 12.5 0 a6.25 6.25 0 1 0 -12.5 0zM668.75 1275 a6.25 6.25 0 1 0 12.5 0 a6.25 6.25 0 1 0 -12.5 0z" fill="black"></path><path d="M1068.75 275 a6.25 6.25 0 1 0 12.5 0 a6.25 6.25 0 1 0 -12.5 0zM1368.75 75 a6.25 6.25 0 1 0 12.5 0 a6.25 6.25 0 1 0 -12.5 0z" fill="black"></path><path d="M1368.75 375 a6.25 6.25 0 1 0 12.5 0 a6.25 6.25 0 1 0 -12.5 0zM1018.75 775 a6.25 6.25 0 1 0 12.5 0 a6.25 6.25 0 1 0 -12.5 0z" fill="black"></path><path d="M1668.75 925 a6.25 6.25 0 1 0 12.5 0 a6.25 6.25 0 1 0 -12.5 0zM1368.75 1225 a6.25 6.25 0 1 0 12.5 0 a6.25 6.25 0 1 0 -12.5 0z" fill="black"></path><path d="M1718.75 1275 a6.25 6.25 0 1 0 12.5 0 a6.25 6.25 0 1 0 -12.5 0zM1668.75 825 a6.25 6.25 0 1 0 12.5 0 a6.25 6.25 0 1 0 -12.5 0z" fill="black"></path><path d="M618.75 125 a6.25 6.25 0 1 0 12.5 0 a6.25 6.25 0 1 0 -12.5 0zM618.75 475 a6.25 6.25 0 1 0 12.5 0 a6.25 6.25 0 1 0 -12.5 0z" fill="black"></path><path d="M1168.75 575 a6.25 6.25 0 1 0 12.5 0 a6.25 6.25 0 1 0 -12.5 0zM1018.75 725 a6.25 6.25 0 1 0 12.5 0 a6.25 6.25 0 1 0 -12.5 0z" fill="black"></path><path d="M1668.75 575 a6.25 6.25 0 1 0 12.5 0 a6.25 6.25 0 1 0 -12.5 0zM1768.75 275 a6.25 6.25 0 1 0 12.5 0 a6.25 6.25 0 1 0 -12.5 0z" fill="black"></path><path d="M1568.75 225 a6.25 6.25 0 1 0 12.5 0 a6.25 6.25 0 1 0 -12.5 0zM1518.75 325 a6.25 6.25 0 1 0 12.5 0 a6.25 6.25 0 1 0 -12.5 0z" fill="black"></path><path d="M318.75 625 a6.25 6.25 0 1 0 12.5 0 a6.25 6.25 0 1 0 -12.5 0zM218.75 1225 a6.25 6.25 0 1 0 12.5 0 a6.25 6.25 0 1 0 -12.5 0z" fill="black"></path><path d="M1018.75 225 a6.25 6.25 0 1 0 12.5 0 a6.25 6.25 0 1 0 -12.5 0zM1218.75 75 a6.25 6.25 0 1 0 12.5 0 a6.25 6.25 0 1 0 -12.5 0z" fill="black"></path><path d="M468.75 925 a6.25 6.25 0 1 0 12.5 0 a6.25 6.25 0 1 0 -12.5 0zM418.75 825 a6.25 6.25 0 1 0 12.5 0 a6.25 6.25 0 1 0 -12.5 0z" fill="black"></path><path d="M1518.75 1025 a6.25 6.25 0 1 0 12.5 0 a6.25 6.25 0 1 0 -12.5 0zM1418.75 1125 a6.25 6.25 0 1 0 12.5 0 a6.25 6.25 0 1 0 -12.5 0z" fill="black"></path><path d="M318.75 275 a6.25 6.25 0 1 0 12.5 0 a6.25 6.25 0 1 0 -12.5 0zM18.75 125 a6.25 6.25 0 1 0 12.5 0 a6.25 6.25 0 1 0 -12.5 0z" fill="black"></path><path d="M918.75 1225 a6.25 6.25 0 1 0 12.5 0 a6.25 6.25 0 1 0 -12.5 0zM718.75 1275 a6.25 6.25 0 1 0 12.5 0 a6.25 6.25 0 1 0 -12.5 0z" fill="black"></path><path d="M968.75 525 a6.25 6.25 0 1 0 12.5 0 a6.25 6.25 0 1 0 -12.5 0zM918.75 625 a6.25 6.25 0 1 0 12.5 0 a6.25 6.25 0 1 0 -12.5 0z" fill="black"></path><path d="M368.75 1225 a6.25 6.25 0 1 0 12.5 0 a6.25 6.25 0 1 0 -12.5 0zM618.75 1225 a6.25 6.25 0 1 0 12.5 0 a6.25 6.25 0 1 0 -12.5 0z" fill="black"></path><path d="M18.75 1225 a6.25 6.25 0 1 0 12.5 0 a6.25 6.25 0 1 0 -12.5 0zM168.75 1225 a6.25 6.25 0 1 0 12.5 0 a6.25 6.25 0 1 0 -12.5 0z" fill="black"></path><path d="M368.75 25 a6.25 6.25 0 1 0 12.5 0 a6.25 6.25 0 1 0 -12.5 0zM568.75 225 a6.25 6.25 0 1 0 12.5 0 a6.25 6.25 0 1 0 -12.5 0z" fill="black"></path><path d="M518.75 1125 a6.25 6.25 0 1 0 12.5 0 a6.25 6.25 0 1 0 -12.5 0zM268.75 1225 a6.25 6.25 0 1 0 12.5 0 a6.25 6.25 0 1 0 -12.5 0z" fill="black"></path><path d="M868.75 375 a6.25 6.25 0 1 0 12.5 0 a6.25 6.25 0 1 0 -12.5 0zM1068.75 475 a6.25 6.25 0 1 0 12.5 0 a6.25 6.25 0 1 0 -12.5 0z" fill="black"></path><path d="M1268.75 325 a6.25 6.25 0 1 0 12.5 0 a6.25 6.25 0 1 0 -12.5 0zM1018.75 675 a6.25 6.25 0 1 0 12.5 0 a6.25 6.25 0 1 0 -12.5 0z" fill="black"></path><path d="M1368.75 175 a6.25 6.25 0 1 0 12.5 0 a6.25 6.25 0 1 0 -12.5 0zM1368.75 275 a6.25 6.25 0 1 0 12.5 0 a6.25 6.25 0 1 0 -12.5 0z" fill="black"></path><path d="M1418.75 575 a6.25 6.25 0 1 0 12.5 0 a6.25 6.25 0 1 0 -12.5 0zM1568.75 575 a6.25 6.25 0 1 0 12.5 0 a6.25 6.25 0 1 0 -12.5 0z" fill="black"></path><path d="M1718.75 375 a6.25 6.25 0 1 0 12.5 0 a6.25 6.25 0 1 0 -12.5 0zM1768.75 725 a6.25 6.25 0 1 0 12.5 0 a6.25 6.25 0 1 0 -12.5 0z" fill="black"></path><path d="M418.75 975 a6.25 6.25 0 1 0 12.5 0 a6.25 6.25 0 1 0 -12.5 0zM668.75 1075 a6.25 6.25 0 1 0 12.5 0 a6.25 6.25 0 1 0 -12.5 0z" fill="black"></path><path d="M68.75 975 a6.25 6.25 0 1 0 12.5 0 a6.25 6.25 0 1 0 -12.5 0zM118.75 675 a6.25 6.25 0 1 0 12.5 0 a6.25 6.25 0 1 0 -12.5 0z" fill="black"></path><path d="M368.75 575 a6.25 6.25 0 1 0 12.5 0 a6.25 6.25 0 1 0 -12.5 0zM718.75 975 a6.25 6.25 0 1 0 12.5 0 a6.25 6.25 0 1 0 -12.5 0z" fill="black"></path><path d="M1718.75 1025 a6.25 6.25 0 1 0 12.5 0 a6.25 6.25 0 1 0 -12.5 0zM1718.75 1225 a6.25 6.25 0 1 0 12.5 0 a6.25 6.25 0 1 0 -12.5 0z" fill="black"></path><path d="M468.75 75 a6.25 6.25 0 1 0 12.5 0 a6.25 6.25 0 1 0 -12.5 0zM568.75 175 a6.25 6.25 0 1 0 12.5 0 a6.25 6.25 0 1 0 -12.5 0z" fill="black"></path><path d="M1418.75 1225 a6.25 6.25 0 1 0 12.5 0 a6.25 6.25 0 1 0 -12.5 0zM1618.75 1225 a6.25 6.25 0 1 0 12.5 0 a6.25 6.25 0 1 0 -12.5 0z" fill="black"></path><path d="M618.75 25 a6.25 6.25 0 1 0 12.5 0 a6.25 6.25 0 1 0 -12.5 0zM468.75 25 a6.25 6.25 0 1 0 12.5 0 a6.25 6.25 0 1 0 -12.5 0z" fill="black"></path><path d="M518.75 1025 a6.25 6.25 0 1 0 12.5 0 a6.25 6.25 0 1 0 -12.5 0zM268.75 1025 a6.25 6.25 0 1 0 12.5 0 a6.25 6.25 0 1 0 -12.5 0z" fill="black"></path><path d="M118.75 825 a6.25 6.25 0 1 0 12.5 0 a6.25 6.25 0 1 0 -12.5 0zM118.75 1175 a6.25 6.25 0 1 0 12.5 0 a6.25 6.25 0 1 0 -12.5 0z" fill="black"></path><path d="M768.75 1275 a6.25 6.25 0 1 0 12.5 0 a6.25 6.25 0 1 0 -12.5 0zM1118.75 1275 a6.25 6.25 0 1 0 12.5 0 a6.25 6.25 0 1 0 -12.5 0z" fill="black"></path><path d="M518.75 675 a6.25 6.25 0 1 0 12.5 0 a6.25 6.25 0 1 0 -12.5 0zM718.75 925 a6.25 6.25 0 1 0 12.5 0 a6.25 6.25 0 1 0 -12.5 0z" fill="black"></path><path d="M168.75 375 a6.25 6.25 0 1 0 12.5 0 a6.25 6.25 0 1 0 -12.5 0zM18.75 275 a6.25 6.25 0 1 0 12.5 0 a6.25 6.25 0 1 0 -12.5 0z" fill="black"></path><path d="M1568.75 125 a6.25 6.25 0 1 0 12.5 0 a6.25 6.25 0 1 0 -12.5 0zM1418.75 125 a6.25 6.25 0 1 0 12.5 0 a6.25 6.25 0 1 0 -12.5 0z" fill="black"></path><path d="M768.75 75 a6.25 6.25 0 1 0 12.5 0 a6.25 6.25 0 1 0 -12.5 0zM668.75 225 a6.25 6.25 0 1 0 12.5 0 a6.25 6.25 0 1 0 -12.5 0z" fill="black"></path><path d="M1068.75 375 a6.25 6.25 0 1 0 12.5 0 a6.25 6.25 0 1 0 -12.5 0zM968.75 275 a6.25 6.25 0 1 0 12.5 0 a6.25 6.25 0 1 0 -12.5 0z" fill="black"></path><path d="M818.75 475 a6.25 6.25 0 1 0 12.5 0 a6.25 6.25 0 1 0 -12.5 0zM918.75 575 a6.25 6.25 0 1 0 12.5 0 a6.25 6.25 0 1 0 -12.5 0z" fill="black"></path><path d="M518.75 375 a6.25 6.25 0 1 0 12.5 0 a6.25 6.25 0 1 0 -12.5 0zM568.75 475 a6.25 6.25 0 1 0 12.5 0 a6.25 6.25 0 1 0 -12.5 0z" fill="black"></path><path d="M368.75 925 a6.25 6.25 0 1 0 12.5 0 a6.25 6.25 0 1 0 -12.5 0zM418.75 725 a6.25 6.25 0 1 0 12.5 0 a6.25 6.25 0 1 0 -12.5 0z" fill="black"></path><path d="M68.75 525 a6.25 6.25 0 1 0 12.5 0 a6.25 6.25 0 1 0 -12.5 0zM218.75 375 a6.25 6.25 0 1 0 12.5 0 a6.25 6.25 0 1 0 -12.5 0z" fill="black"></path><path d="M468.75 275 a6.25 6.25 0 1 0 12.5 0 a6.25 6.25 0 1 0 -12.5 0zM218.75 125 a6.25 6.25 0 1 0 12.5 0 a6.25 6.25 0 1 0 -12.5 0z" fill="black"></path><path d="M1068.75 425 a6.25 6.25 0 1 0 12.5 0 a6.25 6.25 0 1 0 -12.5 0zM968.75 325 a6.25 6.25 0 1 0 12.5 0 a6.25 6.25 0 1 0 -12.5 0z" fill="black"></path><path d="M268.75 25 a6.25 6.25 0 1 0 12.5 0 a6.25 6.25 0 1 0 -12.5 0zM18.75 25 a6.25 6.25 0 1 0 12.5 0 a6.25 6.25 0 1 0 -12.5 0z" fill="black"></path><path d="M68.75 425 a6.25 6.25 0 1 0 12.5 0 a6.25 6.25 0 1 0 -12.5 0zM18.75 675 a6.25 6.25 0 1 0 12.5 0 a6.25 6.25 0 1 0 -12.5 0z" fill="black"></path><path d="M1468.75 675 a6.25 6.25 0 1 0 12.5 0 a6.25 6.25 0 1 0 -12.5 0zM1468.75 875 a6.25 6.25 0 1 0 12.5 0 a6.25 6.25 0 1 0 -12.5 0z" fill="black"></path><path d="M68.75 1175 a6.25 6.25 0 1 0 12.5 0 a6.25 6.25 0 1 0 -12.5 0zM68.75 1025 a6.25 6.25 0 1 0 12.5 0 a6.25 6.25 0 1 0 -12.5 0z" fill="black"></path><path d="M318.75 725 a6.25 6.25 0 1 0 12.5 0 a6.25 6.25 0 1 0 -12.5 0zM318.75 825 a6.25 6.25 0 1 0 12.5 0 a6.25 6.25 0 1 0 -12.5 0z" fill="black"></path><path d="M1518.75 225 a6.25 6.25 0 1 0 12.5 0 a6.25 6.25 0 1 0 -12.5 0zM1618.75 175 a6.25 6.25 0 1 0 12.5 0 a6.25 6.25 0 1 0 -12.5 0z" fill="black"></path><path d="M1268.75 925 a6.25 6.25 0 1 0 12.5 0 a6.25 6.25 0 1 0 -12.5 0zM1068.75 925 a6.25 6.25 0 1 0 12.5 0 a6.25 6.25 0 1 0 -12.5 0z" fill="black"></path><path d="M1768.75 475 a6.25 6.25 0 1 0 12.5 0 a6.25 6.25 0 1 0 -12.5 0zM1768.75 625 a6.25 6.25 0 1 0 12.5 0 a6.25 6.25 0 1 0 -12.5 0z" fill="black"></path><path d="M1668.75 125 a6.25 6.25 0 1 0 12.5 0 a6.25 6.25 0 1 0 -12.5 0zM1668.75 25 a6.25 6.25 0 1 0 12.5 0 a6.25 6.25 0 1 0 -12.5 0z" fill="black"></path><path d="M1718.75 25 a6.25 6.25 0 1 0 12.5 0 a6.25 6.25 0 1 0 -12.5 0zM1718.75 125 a6.25 6.25 0 1 0 12.5 0 a6.25 6.25 0 1 0 -12.5 0z" fill="black"></path><path d="M368.75 275 a6.25 6.25 0 1 0 12.5 0 a6.25 6.25 0 1 0 -12.5 0zM268.75 175 a6.25 6.25 0 1 0 12.5 0 a6.25 6.25 0 1 0 -12.5 0z" fill="black"></path><path d="M418.75 275 a6.25 6.25 0 1 0 12.5 0 a6.25 6.25 0 1 0 -12.5 0zM418.75 175 a6.25 6.25 0 1 0 12.5 0 a6.25 6.25 0 1 0 -12.5 0z" fill="black"></path><path d="M1568.75 1125 a6.25 6.25 0 1 0 12.5 0 a6.25 6.25 0 1 0 -12.5 0zM1618.75 1025 a6.25 6.25 0 1 0 12.5 0 a6.25 6.25 0 1 0 -12.5 0z" fill="black"></path><path d="M1418.75 775 a6.25 6.25 0 1 0 12.5 0 a6.25 6.25 0 1 0 -12.5 0zM1418.75 675 a6.25 6.25 0 1 0 12.5 0 a6.25 6.25 0 1 0 -12.5 0z" fill="black"></path><path d="M1268.75 375 a6.25 6.25 0 1 0 12.5 0 a6.25 6.25 0 1 0 -12.5 0zM1168.75 325 a6.25 6.25 0 1 0 12.5 0 a6.25 6.25 0 1 0 -12.5 0z" fill="black"></path><path d="M18.75 325 a6.25 6.25 0 1 0 12.5 0 a6.25 6.25 0 1 0 -12.5 0zM168.75 425 a6.25 6.25 0 1 0 12.5 0 a6.25 6.25 0 1 0 -12.5 0z" fill="black"></path><path d="M418.75 325 a6.25 6.25 0 1 0 12.5 0 a6.25 6.25 0 1 0 -12.5 0zM318.75 325 a6.25 6.25 0 1 0 12.5 0 a6.25 6.25 0 1 0 -12.5 0z" fill="black"></path></mask></defs></svg>